<svg width="47" height="33" viewBox="0 0 47 33" fill="none" xmlns="http://www.w3.org/2000/svg">
<g clip-path="url(#clip0_166_226)">
<path d="M23.5226 33C19.4342 32.8762 15.3345 32.7973 11.246 32.6171C9.39999 32.5383 7.56529 32.3355 5.73059 32.0652C3.2277 31.6936 1.40433 29.8802 0.883366 27.4137C0.0905945 23.697 -0.0566344 19.9352 0.0226427 16.1622C0.0792692 13.1099 0.339751 10.0352 0.600233 6.97171C0.67951 6.0369 0.906016 5.0683 1.29108 4.21233C2.2424 2.04987 4.0318 0.957379 6.35349 0.67581C10.5325 0.157721 14.7455 0.0225672 18.9472 4.15845e-05C23.7378 -0.022484 28.5284 4.15887e-05 33.319 0.135195C35.9692 0.214035 38.6306 0.450554 41.2581 0.7997C43.7949 1.13758 45.573 2.95089 46.1053 5.43997C46.8754 9.02154 46.9773 12.6594 46.9887 16.2973C47 19.9915 46.8981 23.6857 46.1279 27.3236C45.5504 30.0942 43.4438 31.8738 40.6238 32.2004C35.652 32.7748 30.6463 32.8198 25.6518 32.9099C24.9383 32.9212 24.2135 32.9099 23.5 32.9099C23.5226 32.9437 23.5226 32.9775 23.5226 33ZM18.6981 23.4154C22.8318 21.0727 26.8863 18.7751 31.02 16.4325C26.8523 14.0673 22.8091 11.7809 18.6981 9.44953C18.6981 14.1461 18.6981 18.7188 18.6981 23.4154Z" fill="#D91E3A"/>
<path d="M18.6981 23.4153C18.6981 18.7075 18.6981 14.1348 18.6981 9.44946C22.8091 11.7809 26.8523 14.0672 31.02 16.4324C26.8749 18.7751 22.8318 21.0727 18.6981 23.4153Z" fill="white"/>
</g>
<defs>
<clipPath id="clip0_166_226">
<rect width="47" height="33" fill="white"/>
</clipPath>
</defs>
</svg>
